# xmcd CD database file
#
# Track frame offsets:
#	150
#	22284
#	45365
#	66300
#	87909
#	99900
#	114817
#	132799
#	160004
#	175673
#	193237
#
# Disc length: 2883 seconds
#
# Revision: 1
# Processed by: cddbd v1.4PL0 Copyright (c) Steve Scherf et al.
# Submitted via: CDex 1.40Beta6
#
DISCID=860b410b
DTITLE=Spinshine - Spinshine
DYEAR=2000
DGENRE=Blues
TTITLE0=Microcosm
TTITLE1=Can u Feel the Love??
TTITLE2=I Alone
TTITLE3=Boredom
TTITLE4=Player
TTITLE5=Glorify
TTITLE6=Dream A w a y 
TTITLE7=Down by the Shore
TTITLE8=Bass Slap
TTITLE9=Afternoon
TTITLE10=Headtrip
EXTD=
EXTT0=
EXTT1=
EXTT2=
EXTT3=
EXTT4=
EXTT5=
EXTT6=
EXTT7=
EXTT8=
EXTT9=
EXTT10=
PLAYORDER=
